<?xml version="1.0" encoding="UTF-8"?>
<svg width="74px" height="80px" viewBox="0 0 74 80" version="1.1" xmlns="http://www.w3.org/2000/svg" xmlns:xlink="http://www.w3.org/1999/xlink">
    <!-- Generator: Sketch 52.2 (67145) - http://www.bohemiancoding.com/sketch -->
    <title>Group 17</title>
    <desc>Created with Sketch.</desc>
    <g id="Page-1" stroke="none" stroke-width="1" fill="none" fill-rule="evenodd">
        <g id="Desktop_MyProfile_Log-Out" transform="translate(-677.000000, -352.000000)" stroke="#094879" stroke-width="3">
            <g id="Group-17" transform="translate(679.000000, 354.000000)">
                <path d="M50,38 L53.3333333,38 C54.3833333,38 56.0283333,38.665 56.6666667,39.6666667 L60,39.6666667 C61.5616667,39.6666667 63.3333333,41.125 63.3333333,43 L66.6666667,43 C68.23,43 70,44.4583333 70,46.3333333 L70,63 C70,66.3716667 66.6666667,69.0866667 66.6666667,71.3333333 L66.6666667,73" id="Stroke-1"></path>
                <path d="M50,48 L50,26.3333333 C50,24.4933333 48.5066667,23 46.6666667,23 C44.8266667,23 43.3333333,24.4933333 43.3333333,26.3333333 L43.3333333,51.3333333 L41.1066667,53.47 L36.7516667,46.7183333 C34.0833333,43.045 30,45.1083333 30,46.7183333 C30,46.7183333 35.0566667,61.1866667 35.7816667,62.32 C36.945,64.1433333 41.6666667,68.2416667 41.6666667,69.6666667 L41.6666667,73" id="Stroke-3"></path>
                <path d="M57,40 L57,48" id="Stroke-5"></path>
                <path d="M63,43 L63,50" id="Stroke-7"></path>
                <polyline id="Stroke-9" points="70 78 70 73 38 73 38 78"></polyline>
                <path d="M35,38 L35,32.8571429 C35,28.2851429 29.495,26 25,26 C20.505,26 15,28.2851429 15,32.8571429 L15,38" id="Stroke-11"></path>
                <path d="M25.5,27 C29.408125,27 32,24.1216667 32,20.5733333 L32,18.4266667 C32,14.8783333 29.408125,12 25.5,12 C21.591875,12 19,14.8783333 19,18.4266667 L19,20.5733333 C19,24.1216667 21.591875,27 25.5,27 Z" id="Stroke-13"></path>
                <path d="M26.7662645,49.9266667 C26.1303525,49.975 25.4894724,50 24.8403123,50 C11.1218358,50 0,38.8066667 0,25 C0,11.1933333 11.1218358,0 24.8403123,0 C36.5632837,0 46.3901112,8.17166667 49,19.165" id="Stroke-15"></path>
            </g>
        </g>
    </g>
</svg>